<?xml version="1.0" encoding="UTF-8"?>
<svg xmlns="http://www.w3.org/2000/svg" xmlns:xlink="http://www.w3.org/1999/xlink" width="248px" height="30px" viewBox="0 0 247 30" version="1.1">
<g id="surface1">
<path style=" stroke:none;fill-rule:nonzero;fill:rgb(19.607843%,61.176471%,43.529412%);fill-opacity:1;" d="M 222.171875 2.464844 C 222.480469 2.464844 222.480469 2.464844 222.792969 2.460938 C 223.011719 2.464844 223.222656 2.464844 223.445312 2.46875 C 223.660156 2.464844 223.875 2.464844 224.09375 2.460938 C 224.300781 2.460938 224.503906 2.464844 224.71875 2.464844 C 225 2.464844 225 2.464844 225.289062 2.464844 C 225.773438 2.515625 225.773438 2.515625 226.351562 2.902344 C 226.410156 3.507812 226.429688 4.074219 226.421875 4.679688 C 226.421875 4.863281 226.425781 5.046875 226.425781 5.238281 C 226.425781 5.636719 226.425781 6.039062 226.425781 6.4375 C 226.421875 7.074219 226.425781 7.707031 226.429688 8.339844 C 226.4375 10.140625 226.4375 11.941406 226.4375 13.746094 C 226.4375 14.847656 226.441406 15.949219 226.445312 17.046875 C 226.449219 17.671875 226.445312 18.300781 226.441406 18.925781 C 226.445312 19.304688 226.445312 19.6875 226.449219 20.070312 C 226.445312 20.242188 226.445312 20.421875 226.441406 20.601562 C 226.449219 21.039062 226.457031 21.441406 226.546875 21.871094 C 226.90625 22.242188 226.90625 22.242188 227.316406 22.453125 C 227.390625 23.042969 227.390625 23.042969 227.316406 23.613281 C 226.613281 24.316406 225.480469 24.074219 224.53125 24.074219 C 224.308594 24.078125 224.085938 24.082031 223.851562 24.085938 C 223.640625 24.089844 223.425781 24.089844 223.203125 24.089844 C 223.007812 24.089844 222.8125 24.09375 222.609375 24.09375 C 222.105469 24 222.105469 24 221.75 23.609375 C 221.675781 23.480469 221.601562 23.355469 221.527344 23.226562 C 221.3125 23.417969 221.3125 23.417969 221.09375 23.613281 C 220.316406 24.117188 219.5625 24.167969 218.65625 24.136719 C 217.386719 23.847656 216.574219 22.886719 215.839844 21.859375 C 215.324219 20.941406 215.207031 20.007812 215.160156 18.96875 C 215.097656 18.96875 215.03125 18.96875 214.96875 18.96875 C 214.953125 17.910156 214.941406 16.855469 214.9375 15.796875 C 214.933594 15.441406 214.929688 15.082031 214.921875 14.722656 C 214.839844 8.773438 214.839844 8.773438 216.632812 6.816406 C 217.257812 6.238281 217.757812 5.851562 218.632812 5.808594 C 218.945312 5.765625 218.945312 5.765625 219.261719 5.722656 C 220.28125 5.839844 220.917969 6.355469 221.722656 6.96875 C 221.625 6.777344 221.625 6.777344 221.527344 6.582031 C 221.515625 6.21875 221.511719 5.855469 221.515625 5.492188 C 221.519531 5.296875 221.519531 5.101562 221.519531 4.902344 C 221.523438 4.753906 221.527344 4.605469 221.527344 4.453125 C 221.335938 4.386719 221.144531 4.324219 220.949219 4.257812 C 220.828125 3.605469 220.828125 3.605469 220.757812 2.902344 C 221.257812 2.398438 221.472656 2.464844 222.171875 2.464844 Z M 220.371094 8.710938 C 220.105469 9.242188 220.152344 9.664062 220.15625 10.261719 C 220.15625 10.503906 220.15625 10.75 220.15625 11 C 220.15625 11.265625 220.15625 11.535156 220.15625 11.800781 C 220.15625 12.074219 220.160156 12.347656 220.160156 12.621094 C 220.160156 13.339844 220.160156 14.058594 220.164062 14.777344 C 220.164062 15.507812 220.167969 16.242188 220.167969 16.976562 C 220.167969 18.414062 220.171875 19.851562 220.175781 21.292969 C 220.625 21.292969 221.070312 21.292969 221.527344 21.292969 C 221.527344 17.140625 221.527344 12.988281 221.527344 8.710938 C 221.144531 8.710938 220.765625 8.710938 220.371094 8.710938 Z M 221.722656 8.902344 C 221.722656 12.929688 221.722656 16.953125 221.722656 21.097656 C 221.785156 21.097656 221.847656 21.097656 221.914062 21.097656 C 221.914062 17.074219 221.914062 13.050781 221.914062 8.902344 C 221.851562 8.902344 221.785156 8.902344 221.722656 8.902344 Z M 215.160156 11.226562 C 215.351562 11.613281 215.351562 11.613281 215.351562 11.613281 Z M 215.160156 11.226562 "/>
<path style=" stroke:none;fill-rule:nonzero;fill:rgb(20%,61.568627%,43.921569%);fill-opacity:1;" d="M 125.683594 5.734375 C 125.886719 5.730469 126.085938 5.722656 126.292969 5.71875 C 127.789062 5.714844 127.789062 5.714844 128.5625 6.199219 C 128.730469 6.386719 128.730469 6.386719 128.902344 6.582031 C 129.050781 6.453125 129.195312 6.324219 129.347656 6.195312 C 130.222656 5.609375 131.175781 5.660156 132.183594 5.808594 C 133.324219 6.355469 134.082031 7.15625 134.53125 8.328125 C 135.164062 10.320312 135.3125 12.195312 135.316406 14.273438 C 135.320312 14.691406 135.324219 15.105469 135.332031 15.523438 C 135.351562 17.949219 135.226562 20.347656 133.921875 22.453125 C 133.667969 22.453125 133.410156 22.453125 133.148438 22.453125 C 133.140625 22.601562 133.132812 22.746094 133.125 22.898438 C 132.957031 23.421875 132.957031 23.421875 132.472656 23.78125 C 131.601562 24.0625 130.9375 24.089844 130.0625 23.808594 C 129.539062 23.460938 129.15625 23.089844 128.710938 22.644531 C 128.648438 23.476562 128.582031 24.304688 128.519531 25.164062 C 128.773438 25.289062 129.027344 25.414062 129.289062 25.550781 C 129.484375 25.742188 129.484375 25.742188 129.503906 26.324219 C 129.484375 26.902344 129.484375 26.902344 129.289062 27.097656 C 128.46875 27.144531 127.644531 27.140625 126.820312 27.144531 C 126.410156 27.144531 125.996094 27.152344 125.582031 27.15625 C 125.320312 27.15625 125.058594 27.160156 124.796875 27.160156 C 124.558594 27.160156 124.320312 27.164062 124.070312 27.164062 C 123.882812 27.140625 123.695312 27.121094 123.5 27.097656 C 123.113281 26.515625 123.113281 26.515625 123.175781 26.007812 C 123.308594 25.550781 123.308594 25.550781 123.5 25.355469 C 123.519531 24.808594 123.527344 24.269531 123.527344 23.726562 C 123.53125 23.554688 123.53125 23.382812 123.53125 23.207031 C 123.53125 22.640625 123.53125 22.070312 123.535156 21.503906 C 123.535156 21.109375 123.535156 20.714844 123.535156 20.324219 C 123.535156 19.5 123.535156 18.671875 123.535156 17.847656 C 123.535156 16.789062 123.539062 15.730469 123.539062 14.667969 C 123.542969 13.855469 123.542969 13.042969 123.542969 12.230469 C 123.542969 11.839844 123.542969 11.449219 123.546875 11.058594 C 123.546875 10.511719 123.546875 9.964844 123.546875 9.421875 C 123.546875 9.257812 123.546875 9.097656 123.550781 8.929688 C 123.546875 8.175781 123.539062 7.804688 123.113281 7.164062 C 123.066406 6.664062 123.066406 6.664062 123.113281 6.195312 C 123.789062 5.519531 124.769531 5.734375 125.683594 5.734375 Z M 128.519531 6.773438 C 128.710938 7.164062 128.710938 7.164062 128.710938 7.164062 Z M 123.886719 8.324219 C 123.886719 13.878906 123.886719 19.4375 123.886719 25.164062 C 123.949219 25.164062 124.015625 25.164062 124.078125 25.164062 C 124.078125 19.605469 124.078125 14.046875 124.078125 8.324219 C 124.015625 8.324219 123.953125 8.324219 123.886719 8.324219 Z M 128.773438 8.542969 C 128.414062 9.046875 128.445312 9.40625 128.441406 10.027344 C 128.441406 10.257812 128.4375 10.488281 128.4375 10.726562 C 128.4375 10.972656 128.4375 11.222656 128.441406 11.480469 C 128.441406 11.738281 128.4375 11.996094 128.4375 12.253906 C 128.4375 12.792969 128.4375 13.335938 128.441406 13.875 C 128.445312 14.570312 128.441406 15.261719 128.441406 15.957031 C 128.4375 16.488281 128.4375 17.023438 128.441406 17.554688 C 128.441406 17.933594 128.4375 18.316406 128.4375 18.695312 C 128.4375 18.925781 128.441406 19.15625 128.441406 19.394531 C 128.441406 19.597656 128.441406 19.800781 128.445312 20.011719 C 128.484375 20.515625 128.484375 20.515625 128.75 20.890625 C 129.105469 21.148438 129.105469 21.148438 129.617188 21.035156 C 129.761719 20.992188 129.910156 20.949219 130.0625 20.902344 C 130.070312 19.347656 130.078125 17.792969 130.082031 16.238281 C 130.082031 15.519531 130.085938 14.796875 130.089844 14.074219 C 130.09375 13.378906 130.097656 12.679688 130.097656 11.984375 C 130.097656 11.71875 130.101562 11.453125 130.101562 11.1875 C 130.105469 10.816406 130.105469 10.441406 130.105469 10.070312 C 130.105469 9.859375 130.105469 9.648438 130.109375 9.429688 C 130.101562 8.859375 130.101562 8.859375 129.675781 8.324219 C 129.109375 8.265625 129.109375 8.265625 128.773438 8.542969 Z M 128.773438 8.542969 "/>
<path style=" stroke:none;fill-rule:nonzero;fill:rgb(0%,0.392157%,0%);fill-opacity:1;" d="M 24.972656 5.976562 C 25.273438 5.980469 25.273438 5.980469 25.582031 5.980469 C 25.796875 5.980469 26.015625 5.980469 26.238281 5.984375 C 26.46875 5.984375 26.695312 5.984375 26.929688 5.988281 C 27.160156 5.988281 27.390625 5.988281 27.625 5.988281 C 28.195312 5.992188 28.761719 5.996094 29.332031 6 C 29.457031 6.445312 29.585938 6.894531 29.71875 7.355469 C 29.820312 7.273438 29.925781 7.191406 30.035156 7.109375 C 30.171875 7 30.3125 6.894531 30.453125 6.785156 C 30.589844 6.679688 30.726562 6.574219 30.867188 6.464844 C 31.832031 5.796875 33.027344 5.847656 34.15625 6 C 34.945312 6.390625 35.386719 6.859375 35.710938 7.679688 C 35.90625 8.378906 35.945312 8.964844 35.949219 9.691406 C 35.949219 9.824219 35.949219 9.957031 35.953125 10.089844 C 35.953125 10.375 35.957031 10.65625 35.957031 10.941406 C 35.960938 11.390625 35.964844 11.839844 35.96875 12.289062 C 35.980469 13.40625 35.984375 14.515625 35.992188 15.632812 C 35.996094 16.574219 36.003906 17.519531 36.015625 18.460938 C 36.019531 18.90625 36.019531 19.347656 36.019531 19.792969 C 36.023438 20.0625 36.027344 20.332031 36.027344 20.601562 C 36.03125 20.839844 36.03125 21.074219 36.035156 21.320312 C 36.027344 21.894531 36.027344 21.894531 36.472656 22.257812 C 36.535156 22.785156 36.496094 23.277344 36.472656 23.804688 C 36.011719 24.265625 34.902344 24.0625 34.289062 24.074219 C 34.007812 24.082031 34.007812 24.082031 33.726562 24.09375 C 33.546875 24.097656 33.367188 24.101562 33.179688 24.101562 C 33.015625 24.105469 32.851562 24.109375 32.683594 24.113281 C 32.007812 23.945312 31.828125 23.609375 31.453125 23.03125 C 31.355469 22.40625 31.355469 22.40625 31.351562 21.683594 C 31.347656 21.554688 31.347656 21.421875 31.347656 21.285156 C 31.339844 20.851562 31.339844 20.421875 31.34375 19.988281 C 31.339844 19.6875 31.335938 19.386719 31.332031 19.082031 C 31.328125 18.292969 31.324219 17.5 31.324219 16.707031 C 31.320312 15.4375 31.308594 14.167969 31.296875 12.898438 C 31.296875 12.457031 31.292969 12.011719 31.292969 11.566406 C 31.292969 11.296875 31.289062 11.027344 31.289062 10.757812 C 31.289062 10.519531 31.289062 10.28125 31.285156 10.039062 C 31.300781 9.496094 31.300781 9.496094 31.066406 9.097656 C 30.621094 9.160156 30.175781 9.222656 29.71875 9.289062 C 29.703125 10.921875 29.695312 12.550781 29.6875 14.179688 C 29.683594 14.9375 29.679688 15.695312 29.675781 16.453125 C 29.667969 17.183594 29.664062 17.914062 29.664062 18.644531 C 29.660156 18.921875 29.660156 19.203125 29.65625 19.480469 C 29.652344 19.867188 29.652344 20.261719 29.652344 20.652344 C 29.648438 20.871094 29.648438 21.09375 29.648438 21.324219 C 29.726562 21.941406 29.84375 22.058594 30.296875 22.449219 C 30.355469 23.046875 30.355469 23.046875 30.296875 23.613281 C 29.910156 24 29.910156 24 29.375 24.046875 C 29.148438 24.046875 28.925781 24.046875 28.699219 24.042969 C 28.453125 24.042969 28.214844 24.042969 27.964844 24.042969 C 27.710938 24.042969 27.457031 24.039062 27.195312 24.035156 C 26.941406 24.035156 26.6875 24.035156 26.425781 24.035156 C 24.535156 24.027344 24.535156 24.027344 24.3125 23.804688 C 24.285156 23.289062 24.304688 22.777344 24.3125 22.257812 C 24.601562 22.164062 24.601562 22.164062 24.894531 22.0625 C 24.90625 20.285156 24.914062 18.507812 24.921875 16.730469 C 24.925781 15.902344 24.929688 15.078125 24.9375 14.253906 C 24.941406 13.453125 24.945312 12.660156 24.949219 11.863281 C 24.949219 11.558594 24.949219 11.253906 24.953125 10.949219 C 24.957031 10.523438 24.957031 10.097656 24.957031 9.671875 C 24.960938 9.429688 24.960938 9.1875 24.960938 8.9375 C 24.886719 8.269531 24.734375 8.054688 24.3125 7.546875 C 24.265625 6.835938 24.265625 6.835938 24.3125 6.191406 C 24.507812 6 24.507812 6 24.972656 5.976562 Z M 24.972656 5.976562 "/>
<path style=" stroke:none;fill-rule:nonzero;fill:rgb(0%,0.392157%,0%);fill-opacity:1;" d="M 47.550781 5.972656 C 47.757812 5.972656 47.960938 5.972656 48.175781 5.972656 C 48.394531 5.972656 48.609375 5.972656 48.832031 5.976562 C 49.050781 5.972656 49.269531 5.972656 49.492188 5.972656 C 49.699219 5.972656 49.90625 5.972656 50.117188 5.972656 C 50.402344 5.972656 50.402344 5.972656 50.695312 5.972656 C 51.136719 6 51.136719 6 51.328125 6.191406 C 51.351562 6.621094 51.363281 7.050781 51.367188 7.480469 C 51.367188 7.617188 51.371094 7.75 51.371094 7.890625 C 51.375 8.183594 51.378906 8.476562 51.378906 8.769531 C 51.382812 9.234375 51.390625 9.699219 51.394531 10.164062 C 51.40625 11.152344 51.417969 12.140625 51.425781 13.125 C 51.4375 14.265625 51.449219 15.40625 51.460938 16.550781 C 51.46875 17.007812 51.472656 17.464844 51.476562 17.921875 C 51.480469 18.203125 51.480469 18.484375 51.484375 18.765625 C 51.488281 19.011719 51.492188 19.253906 51.492188 19.507812 C 51.515625 20.011719 51.566406 20.425781 51.714844 20.902344 C 52.382812 20.710938 52.382812 20.710938 53.066406 20.515625 C 53.078125 18.90625 53.089844 17.296875 53.097656 15.691406 C 53.097656 14.941406 53.101562 14.199219 53.109375 13.449219 C 53.117188 12.730469 53.121094 12.007812 53.121094 11.289062 C 53.121094 11.015625 53.125 10.738281 53.128906 10.464844 C 53.132812 10.078125 53.132812 9.695312 53.132812 9.308594 C 53.132812 9.089844 53.132812 8.871094 53.136719 8.644531 C 53.101562 8.390625 53.101562 8.390625 53.066406 8.128906 C 52.875 8 52.683594 7.871094 52.488281 7.742188 C 52.398438 7.210938 52.453125 6.738281 52.488281 6.191406 C 52.824219 5.855469 53.289062 5.972656 53.746094 5.972656 C 53.964844 5.972656 54.179688 5.972656 54.402344 5.972656 C 54.632812 5.972656 54.855469 5.972656 55.09375 5.976562 C 55.433594 5.972656 55.433594 5.972656 55.78125 5.972656 C 56.105469 5.972656 56.105469 5.972656 56.4375 5.972656 C 56.636719 5.972656 56.835938 5.972656 57.042969 5.972656 C 57.503906 6 57.503906 6 57.699219 6.191406 C 57.71875 6.679688 57.726562 7.160156 57.730469 7.644531 C 57.730469 7.796875 57.730469 7.949219 57.730469 8.105469 C 57.730469 8.4375 57.734375 8.769531 57.734375 9.101562 C 57.738281 9.621094 57.742188 10.148438 57.746094 10.671875 C 57.757812 12.160156 57.769531 13.652344 57.773438 15.140625 C 57.777344 16.050781 57.785156 16.960938 57.792969 17.871094 C 57.796875 18.21875 57.796875 18.566406 57.800781 18.914062 C 57.800781 19.398438 57.804688 19.882812 57.808594 20.367188 C 57.808594 20.511719 57.808594 20.65625 57.808594 20.804688 C 57.808594 21.574219 57.808594 21.574219 58.183594 22.210938 C 58.277344 22.289062 58.371094 22.371094 58.46875 22.449219 C 58.519531 23.152344 58.519531 23.152344 58.46875 23.804688 C 58.140625 24.136719 57.710938 24.023438 57.257812 24.027344 C 57.050781 24.027344 56.84375 24.027344 56.632812 24.027344 C 56.414062 24.027344 56.195312 24.023438 55.972656 24.023438 C 55.757812 24.023438 55.539062 24.027344 55.316406 24.027344 C 55.109375 24.027344 54.902344 24.027344 54.6875 24.027344 C 54.5 24.023438 54.308594 24.023438 54.109375 24.023438 C 53.644531 24 53.644531 24 53.257812 23.804688 C 53.136719 23.214844 53.136719 23.214844 53.066406 22.644531 C 52.890625 22.769531 52.890625 22.769531 52.707031 22.890625 C 52.550781 23 52.394531 23.105469 52.234375 23.214844 C 52.082031 23.320312 51.925781 23.425781 51.765625 23.53125 C 50.789062 24.144531 49.742188 24.136719 48.628906 24 C 47.988281 23.734375 47.621094 23.324219 47.296875 22.699219 C 46.753906 21.246094 46.816406 19.769531 46.835938 18.242188 C 46.835938 17.949219 46.835938 17.65625 46.835938 17.363281 C 46.839844 16.597656 46.84375 15.832031 46.851562 15.070312 C 46.855469 14.289062 46.859375 13.503906 46.863281 12.722656 C 46.871094 11.191406 46.878906 9.660156 46.890625 8.128906 C 46.636719 8 46.382812 7.871094 46.121094 7.742188 C 46.121094 7.230469 46.121094 6.71875 46.121094 6.191406 C 46.621094 5.941406 46.988281 5.972656 47.550781 5.972656 Z M 47.550781 5.972656 "/>
<path style=" stroke:none;fill-rule:nonzero;fill:rgb(19.607843%,61.568627%,43.921569%);fill-opacity:1;" d="M 174.636719 6.386719 C 174.832031 6.484375 174.832031 6.484375 175.03125 6.589844 C 176.0625 7.257812 176.5625 8.132812 176.953125 9.289062 C 177.082031 10.265625 177.082031 11.234375 177.074219 12.214844 C 177.074219 12.496094 177.078125 12.773438 177.082031 13.054688 C 177.085938 13.777344 177.085938 14.507812 177.085938 15.230469 C 177.082031 16.402344 177.089844 17.570312 177.097656 18.738281 C 177.097656 19.144531 177.097656 19.550781 177.097656 19.957031 C 177.097656 20.203125 177.097656 20.449219 177.097656 20.703125 C 177.097656 20.917969 177.097656 21.136719 177.097656 21.359375 C 177.09375 21.902344 177.09375 21.902344 177.53125 22.257812 C 177.605469 22.828125 177.605469 22.828125 177.53125 23.417969 C 177.074219 23.898438 176.792969 23.996094 176.132812 24.082031 C 173.808594 24.085938 173.808594 24.085938 172.898438 23.226562 C 172.71875 23.058594 172.71875 23.058594 172.539062 22.886719 C 172.464844 22.808594 172.394531 22.726562 172.320312 22.644531 C 171.9375 22.835938 171.9375 22.835938 171.550781 23.03125 C 171.550781 22.90625 171.550781 22.777344 171.550781 22.644531 C 171.5 22.796875 171.453125 22.949219 171.40625 23.105469 C 171.117188 23.703125 170.996094 23.773438 170.390625 24 C 169.324219 24.128906 168.378906 24.148438 167.398438 23.671875 C 166.078125 22.449219 165.445312 21.082031 165.335938 19.28125 C 165.308594 17.335938 165.351562 15.261719 166.726562 13.742188 C 168.257812 12.5625 170.15625 11.933594 171.933594 11.226562 C 172 10.074219 172.0625 8.925781 172.128906 7.742188 C 171.617188 7.679688 171.109375 7.613281 170.585938 7.546875 C 170.617188 7.683594 170.652344 7.820312 170.6875 7.957031 C 170.847656 8.953125 170.703125 9.886719 170.390625 10.839844 C 169.890625 11.480469 169.289062 11.574219 168.515625 11.695312 C 167.804688 11.746094 167.195312 11.773438 166.566406 11.410156 C 166.058594 10.890625 165.878906 10.324219 165.820312 9.617188 C 165.898438 8.515625 166.347656 7.746094 167.109375 6.96875 C 169.125 5.347656 172.367188 5.222656 174.636719 6.386719 Z M 171.25 13.777344 C 170.289062 14.886719 170.542969 16.433594 170.535156 17.828125 C 170.53125 18.0625 170.527344 18.292969 170.523438 18.53125 C 170.523438 18.75 170.523438 18.972656 170.519531 19.199219 C 170.519531 19.402344 170.515625 19.601562 170.515625 19.808594 C 170.546875 20.324219 170.546875 20.324219 170.816406 20.695312 C 171.238281 21 171.238281 21 172.128906 20.710938 C 172.128906 18.28125 172.128906 15.855469 172.128906 13.355469 C 171.683594 13.3125 171.683594 13.3125 171.25 13.777344 Z M 165.566406 17.03125 C 165.761719 17.804688 165.761719 17.804688 165.761719 17.804688 Z M 165.566406 19.355469 C 165.761719 19.933594 165.761719 19.933594 165.761719 19.933594 Z M 165.566406 19.355469 "/>
<path style=" stroke:none;fill-rule:nonzero;fill:rgb(19.215686%,61.176471%,43.529412%);fill-opacity:1;" d="M 207.898438 5.746094 C 208.054688 5.742188 208.210938 5.738281 208.375 5.734375 C 209.726562 5.734375 210.96875 5.992188 212.023438 6.90625 C 212.128906 6.992188 212.230469 7.074219 212.335938 7.164062 C 213.484375 8.558594 213.535156 9.835938 213.523438 11.597656 C 213.519531 12.015625 213.523438 12.433594 213.527344 12.851562 C 213.53125 13.59375 213.53125 14.328125 213.53125 15.070312 C 213.53125 16.25 213.535156 17.433594 213.542969 18.617188 C 213.542969 19.027344 213.542969 19.441406 213.542969 19.855469 C 213.542969 20.101562 213.542969 20.355469 213.546875 20.613281 C 213.546875 20.832031 213.542969 21.054688 213.542969 21.28125 C 213.625 21.933594 213.820312 22.304688 214.195312 22.839844 C 213.664062 23.78125 213.664062 23.78125 213.230469 24 C 212.792969 24.027344 212.351562 24.042969 211.914062 24.046875 C 211.679688 24.054688 211.445312 24.058594 211.203125 24.0625 C 210.109375 23.960938 209.519531 23.429688 208.792969 22.644531 C 208.683594 22.726562 208.578125 22.808594 208.46875 22.890625 C 208.328125 23 208.1875 23.105469 208.042969 23.214844 C 207.90625 23.320312 207.765625 23.425781 207.625 23.53125 C 206.691406 24.210938 205.660156 24.140625 204.546875 24 C 203.363281 23.511719 202.773438 22.585938 202.234375 21.464844 C 201.886719 20.464844 201.921875 19.484375 201.953125 18.433594 C 201.953125 18.222656 201.957031 18.011719 201.957031 17.792969 C 201.980469 16.191406 202.179688 15.03125 203.195312 13.742188 C 203.773438 13.324219 203.773438 13.324219 204.4375 12.957031 C 204.554688 12.890625 204.671875 12.824219 204.792969 12.757812 C 205.957031 12.128906 207.160156 11.671875 208.40625 11.226562 C 208.46875 10.074219 208.535156 8.925781 208.597656 7.742188 C 208.214844 7.871094 207.835938 7.996094 207.441406 8.128906 C 207.425781 8.285156 207.40625 8.441406 207.390625 8.601562 C 207.140625 10.503906 207.140625 10.503906 206.585938 11.070312 C 205.65625 11.730469 204.6875 11.746094 203.582031 11.613281 C 203.015625 11.265625 202.71875 11.042969 202.421875 10.449219 C 202.285156 9.125 202.558594 8.214844 203.386719 7.160156 C 204.734375 6.019531 206.183594 5.738281 207.898438 5.746094 Z M 208.792969 8.320312 C 208.792969 9.28125 208.792969 10.238281 208.792969 11.226562 C 208.855469 11.226562 208.921875 11.226562 208.984375 11.226562 C 208.984375 10.265625 208.984375 9.308594 208.984375 8.320312 C 208.921875 8.320312 208.855469 8.320312 208.792969 8.320312 Z M 208.792969 13.160156 C 208.792969 15.460938 208.792969 17.757812 208.792969 20.128906 C 208.855469 20.128906 208.921875 20.128906 208.984375 20.128906 C 208.984375 17.828125 208.984375 15.53125 208.984375 13.160156 C 208.921875 13.160156 208.855469 13.160156 208.792969 13.160156 Z M 208.210938 13.355469 C 206.90625 14.695312 207.023438 16.03125 207.03125 17.832031 C 207.03125 18.023438 207.03125 18.210938 207.03125 18.410156 C 207.03125 18.59375 207.03125 18.78125 207.03125 18.96875 C 207.03125 19.136719 207.03125 19.304688 207.03125 19.472656 C 207.054688 19.910156 207.125 20.289062 207.246094 20.710938 C 207.632812 20.78125 208.019531 20.847656 208.40625 20.902344 C 208.679688 20.671875 208.679688 20.671875 208.621094 20.011719 C 208.621094 19.703125 208.621094 19.394531 208.617188 19.082031 C 208.617188 18.917969 208.617188 18.757812 208.617188 18.589844 C 208.617188 18.066406 208.613281 17.542969 208.613281 17.019531 C 208.609375 16.664062 208.609375 16.3125 208.609375 15.960938 C 208.605469 15.09375 208.605469 14.222656 208.597656 13.355469 C 208.472656 13.355469 208.34375 13.355469 208.210938 13.355469 Z M 208.019531 22.449219 C 207.890625 22.707031 207.765625 22.960938 207.632812 23.226562 C 207.886719 22.96875 208.144531 22.714844 208.40625 22.449219 C 208.277344 22.449219 208.152344 22.449219 208.019531 22.449219 Z M 208.019531 22.449219 "/>
<path style=" stroke:none;fill-rule:nonzero;fill:rgb(19.607843%,61.568627%,43.921569%);fill-opacity:1;" d="M 235.699219 5.933594 C 237.207031 6.617188 238.386719 8.007812 239.089844 9.484375 C 240.316406 13.039062 240.308594 17.417969 238.738281 20.867188 C 238.289062 21.78125 237.859375 22.003906 236.964844 22.449219 C 236.828125 22.839844 236.828125 22.839844 236.773438 23.226562 C 235.46875 24.148438 234.089844 24.203125 232.527344 24 C 231.289062 23.492188 230.417969 22.746094 229.621094 21.675781 C 229.496094 21.515625 229.367188 21.347656 229.238281 21.179688 C 228.1875 19.332031 227.964844 17.515625 227.988281 15.425781 C 227.992188 15.011719 227.988281 14.597656 227.984375 14.183594 C 227.980469 11.867188 228.382812 9.4375 229.824219 7.546875 C 231.496094 5.972656 233.429688 5.320312 235.699219 5.933594 Z M 233.105469 7.546875 C 233.09375 9.378906 233.082031 11.214844 233.074219 13.042969 C 233.074219 13.894531 233.070312 14.746094 233.0625 15.597656 C 233.054688 16.417969 233.050781 17.238281 233.050781 18.058594 C 233.050781 18.371094 233.046875 18.6875 233.042969 19 C 233.039062 19.4375 233.039062 19.875 233.039062 20.3125 C 233.039062 20.5625 233.035156 20.8125 233.035156 21.070312 C 233.050781 21.675781 233.050781 21.675781 233.398438 22.050781 C 233.496094 22.121094 233.589844 22.1875 233.683594 22.257812 C 234.074219 22.121094 234.074219 22.121094 234.457031 21.871094 C 234.695312 21.21875 234.675781 20.574219 234.675781 19.886719 C 234.675781 19.640625 234.675781 19.398438 234.675781 19.144531 C 234.675781 18.878906 234.675781 18.613281 234.675781 18.347656 C 234.675781 18.070312 234.675781 17.796875 234.675781 17.523438 C 234.675781 16.949219 234.675781 16.375 234.675781 15.796875 C 234.671875 15.066406 234.675781 14.328125 234.675781 13.59375 C 234.675781 13.027344 234.675781 12.460938 234.675781 11.894531 C 234.675781 11.625 234.675781 11.351562 234.675781 11.082031 C 234.675781 10.703125 234.675781 10.324219 234.675781 9.945312 C 234.675781 9.730469 234.675781 9.515625 234.675781 9.292969 C 234.652344 8.753906 234.578125 8.265625 234.457031 7.742188 C 234.011719 7.675781 233.566406 7.613281 233.105469 7.546875 Z M 234.648438 8.320312 C 234.84375 8.707031 234.84375 8.707031 234.84375 8.707031 Z M 228.28125 11.804688 C 228.476562 12.191406 228.476562 12.191406 228.476562 12.191406 Z M 234.648438 21.097656 C 234.84375 21.484375 234.84375 21.484375 234.84375 21.484375 Z M 234.648438 21.097656 "/>
<path style=" stroke:none;fill-rule:nonzero;fill:rgb(0%,0.392157%,0%);fill-opacity:1;" d="M 19.597656 6.339844 C 19.824219 6.476562 20.046875 6.625 20.261719 6.773438 C 20.429688 6.878906 20.597656 6.980469 20.769531 7.089844 C 22.816406 9.144531 23.195312 11.84375 23.203125 14.613281 C 23.203125 17.558594 22.890625 20.484375 20.785156 22.734375 C 19.480469 23.917969 18.28125 24.171875 16.53125 24.105469 C 15.113281 23.894531 14.132812 23.207031 13.242188 22.101562 C 11.804688 19.953125 11.503906 17.679688 11.515625 15.132812 C 11.519531 14.828125 11.519531 14.828125 11.519531 14.519531 C 11.558594 11.90625 11.964844 9.097656 13.894531 7.160156 C 15.550781 5.976562 17.65625 5.386719 19.597656 6.339844 Z M 16.980469 7.742188 C 16.394531 8.457031 16.328125 9.050781 16.332031 9.960938 C 16.328125 10.207031 16.328125 10.457031 16.328125 10.714844 C 16.328125 10.980469 16.328125 11.253906 16.332031 11.523438 C 16.332031 11.800781 16.332031 12.078125 16.332031 12.359375 C 16.332031 12.941406 16.332031 13.519531 16.335938 14.105469 C 16.339844 14.847656 16.339844 15.59375 16.339844 16.339844 C 16.339844 16.914062 16.339844 17.488281 16.34375 18.0625 C 16.34375 18.339844 16.34375 18.613281 16.34375 18.886719 C 16.34375 19.273438 16.347656 19.65625 16.347656 20.039062 C 16.351562 20.257812 16.351562 20.476562 16.351562 20.703125 C 16.402344 21.292969 16.539062 21.722656 16.789062 22.257812 C 17.253906 22.304688 17.253906 22.304688 17.753906 22.257812 C 18.222656 21.550781 18.1875 21.214844 18.191406 20.375 C 18.191406 20.242188 18.191406 20.113281 18.191406 19.972656 C 18.195312 19.539062 18.191406 19.105469 18.191406 18.667969 C 18.191406 18.367188 18.191406 18.066406 18.191406 17.765625 C 18.191406 17.132812 18.191406 16.5 18.191406 15.867188 C 18.1875 15.054688 18.1875 14.242188 18.191406 13.429688 C 18.191406 12.808594 18.191406 12.183594 18.191406 11.5625 C 18.191406 11.261719 18.191406 10.960938 18.191406 10.660156 C 18.195312 10.242188 18.191406 9.824219 18.191406 9.410156 C 18.1875 9.171875 18.1875 8.933594 18.1875 8.6875 C 18.199219 8.105469 18.199219 8.105469 17.753906 7.742188 C 17.5 7.742188 17.246094 7.742188 16.980469 7.742188 Z M 16.980469 7.742188 "/>
<path style=" stroke:none;fill-rule:nonzero;fill:rgb(0%,0.392157%,0%);fill-opacity:1;" d="M 82.109375 6.472656 C 84 7.820312 84.90625 9.746094 85.292969 12 C 85.339844 12.90625 85.335938 13.8125 85.339844 14.722656 C 85.34375 14.964844 85.347656 15.210938 85.351562 15.460938 C 85.363281 18.042969 84.933594 20.570312 83.128906 22.527344 C 81.710938 23.839844 80.59375 24.132812 78.664062 24.070312 C 77.679688 23.972656 77.128906 23.710938 76.414062 23.03125 C 76.28125 22.90625 76.148438 22.777344 76.007812 22.648438 C 73.859375 20.429688 73.644531 17.585938 73.65625 14.628906 C 73.710938 11.925781 74.21875 9.195312 76.113281 7.148438 C 77.738281 5.707031 80.171875 5.402344 82.109375 6.472656 Z M 78.730469 8.128906 C 78.457031 9.394531 78.511719 10.691406 78.511719 11.980469 C 78.511719 12.222656 78.511719 12.460938 78.511719 12.707031 C 78.511719 13.34375 78.511719 13.976562 78.511719 14.613281 C 78.511719 15 78.511719 15.386719 78.511719 15.777344 C 78.511719 16.523438 78.511719 17.269531 78.511719 18.019531 C 78.511719 18.246094 78.511719 18.476562 78.511719 18.714844 C 78.394531 20.625 78.394531 20.625 79.117188 22.257812 C 79.617188 22.195312 79.617188 22.195312 80.082031 22.0625 C 80.394531 21.234375 80.515625 20.550781 80.519531 19.667969 C 80.519531 19.425781 80.519531 19.1875 80.523438 18.9375 C 80.519531 18.675781 80.519531 18.417969 80.519531 18.15625 C 80.519531 17.886719 80.519531 17.617188 80.519531 17.347656 C 80.519531 16.785156 80.519531 16.222656 80.519531 15.660156 C 80.515625 14.941406 80.519531 14.21875 80.519531 13.496094 C 80.523438 12.941406 80.519531 12.386719 80.519531 11.832031 C 80.519531 11.566406 80.519531 11.300781 80.519531 11.035156 C 80.523438 10.664062 80.519531 10.292969 80.519531 9.921875 C 80.519531 9.710938 80.519531 9.5 80.515625 9.28125 C 80.464844 8.695312 80.328125 8.273438 80.082031 7.742188 C 79.320312 7.671875 79.320312 7.671875 78.730469 8.128906 Z M 78.730469 8.128906 "/>
<path style=" stroke:none;fill-rule:nonzero;fill:rgb(19.607843%,61.568627%,43.921569%);fill-opacity:1;" d="M 144.085938 6.007812 C 145.800781 7.042969 146.605469 8.769531 147.152344 10.632812 C 147.246094 11.082031 147.257812 11.492188 147.253906 11.953125 C 147.253906 12.109375 147.253906 12.265625 147.253906 12.425781 C 147.25 12.621094 147.25 12.816406 147.246094 13.015625 C 147.242188 13.636719 147.238281 14.261719 147.234375 14.902344 C 145.324219 14.902344 143.414062 14.902344 141.445312 14.902344 C 141.460938 15.765625 141.476562 16.632812 141.496094 17.496094 C 141.503906 17.789062 141.507812 18.082031 141.511719 18.378906 C 141.519531 18.800781 141.527344 19.222656 141.539062 19.648438 C 141.542969 19.902344 141.550781 20.15625 141.554688 20.417969 C 141.644531 21.121094 141.808594 21.496094 142.21875 22.066406 C 143.203125 22.015625 143.203125 22.015625 143.988281 21.464844 C 144.523438 20.613281 144.511719 19.777344 144.59375 18.789062 C 144.726562 18.195312 144.726562 18.195312 145.074219 17.914062 C 145.78125 17.734375 146.328125 17.871094 147.042969 18 C 147.363281 18.324219 147.292969 18.703125 147.308594 19.148438 C 147.289062 20.558594 146.851562 21.632812 145.890625 22.667969 C 144.550781 23.882812 143.585938 24.109375 141.773438 24.058594 C 140.171875 23.925781 139.261719 23.113281 138.175781 21.96875 C 137.320312 20.921875 136.730469 19.75 136.621094 18.386719 C 136.558594 18.386719 136.496094 18.386719 136.429688 18.386719 C 136.195312 17.273438 136.199219 16.179688 136.199219 15.050781 C 136.199219 14.855469 136.195312 14.664062 136.195312 14.46875 C 136.1875 11.941406 136.746094 9.308594 138.390625 7.308594 C 139.9375 5.824219 142.039062 5.207031 144.085938 6.007812 Z M 141.640625 7.742188 C 141.386719 8.242188 141.421875 8.613281 141.421875 9.175781 C 141.421875 9.382812 141.417969 9.589844 141.417969 9.804688 C 141.421875 10.023438 141.421875 10.238281 141.421875 10.464844 C 141.421875 10.683594 141.421875 10.898438 141.417969 11.125 C 141.417969 11.332031 141.421875 11.539062 141.421875 11.753906 C 141.421875 11.945312 141.421875 12.132812 141.421875 12.332031 C 141.394531 12.765625 141.394531 12.765625 141.640625 12.96875 C 142.023438 12.976562 142.410156 12.976562 142.796875 12.96875 C 142.800781 12.167969 142.804688 11.371094 142.808594 10.570312 C 142.808594 10.347656 142.8125 10.117188 142.8125 9.882812 C 142.8125 9.667969 142.8125 9.449219 142.816406 9.226562 C 142.816406 9.023438 142.816406 8.824219 142.816406 8.617188 C 142.828125 8.128906 142.828125 8.128906 142.605469 7.742188 C 142.285156 7.742188 141.96875 7.742188 141.640625 7.742188 Z M 136.621094 11.421875 C 136.816406 11.808594 136.816406 11.808594 136.816406 11.808594 Z M 136.429688 12.773438 C 136.621094 13.160156 136.621094 13.160156 136.621094 13.160156 Z M 136.429688 12.773438 "/>
<path style=" stroke:none;fill-rule:nonzero;fill:rgb(19.607843%,61.568627%,43.921569%);fill-opacity:1;" d="M 110.125 6.007812 C 111.839844 7.042969 112.644531 8.769531 113.191406 10.632812 C 113.285156 11.082031 113.292969 11.492188 113.292969 11.953125 C 113.292969 12.109375 113.289062 12.265625 113.289062 12.425781 C 113.289062 12.621094 113.285156 12.816406 113.285156 13.015625 C 113.28125 13.636719 113.277344 14.261719 113.273438 14.902344 C 111.363281 14.902344 109.453125 14.902344 107.484375 14.902344 C 107.507812 15.769531 107.53125 16.640625 107.554688 17.507812 C 107.566406 17.800781 107.574219 18.097656 107.578125 18.390625 C 107.589844 18.816406 107.601562 19.242188 107.613281 19.667969 C 107.617188 19.796875 107.621094 19.929688 107.625 20.0625 C 107.644531 20.691406 107.683594 21.269531 107.871094 21.871094 C 108.148438 21.886719 108.421875 21.898438 108.699219 21.90625 C 108.855469 21.914062 109.011719 21.921875 109.171875 21.925781 C 109.707031 21.859375 109.855469 21.714844 110.183594 21.289062 C 110.574219 20.40625 110.628906 19.566406 110.660156 18.613281 C 110.765625 18.195312 110.765625 18.195312 111.109375 17.9375 C 111.8125 17.71875 112.355469 17.867188 113.078125 18 C 113.402344 18.324219 113.328125 18.703125 113.347656 19.148438 C 113.335938 20.320312 113.035156 21.324219 112.308594 22.257812 C 111.890625 22.40625 111.890625 22.40625 111.535156 22.453125 C 111.53125 22.5625 111.527344 22.675781 111.523438 22.789062 C 111.296875 23.339844 110.992188 23.578125 110.472656 23.851562 C 109.183594 24.25 107.503906 24.269531 106.253906 23.722656 C 104.429688 22.582031 103.144531 20.832031 102.546875 18.765625 C 102.519531 18.640625 102.492188 18.515625 102.464844 18.386719 C 102.433594 18.242188 102.402344 18.09375 102.367188 17.945312 C 102.203125 17.019531 102.238281 16.09375 102.238281 15.15625 C 102.234375 14.957031 102.234375 14.753906 102.230469 14.546875 C 102.226562 11.988281 102.757812 9.335938 104.425781 7.308594 C 105.972656 5.824219 108.074219 5.207031 110.125 6.007812 Z M 107.675781 7.742188 C 107.425781 8.242188 107.457031 8.613281 107.457031 9.175781 C 107.457031 9.382812 107.457031 9.589844 107.457031 9.804688 C 107.457031 10.023438 107.457031 10.238281 107.460938 10.464844 C 107.457031 10.683594 107.457031 10.898438 107.457031 11.125 C 107.457031 11.332031 107.457031 11.539062 107.457031 11.753906 C 107.457031 11.945312 107.457031 12.132812 107.457031 12.332031 C 107.433594 12.765625 107.433594 12.765625 107.675781 12.96875 C 108.0625 12.976562 108.449219 12.976562 108.835938 12.96875 C 108.839844 12.167969 108.84375 11.371094 108.847656 10.570312 C 108.847656 10.347656 108.851562 10.117188 108.851562 9.882812 C 108.851562 9.667969 108.851562 9.449219 108.855469 9.226562 C 108.855469 9.023438 108.855469 8.824219 108.855469 8.617188 C 108.867188 8.128906 108.867188 8.128906 108.640625 7.742188 C 108.324219 7.742188 108.003906 7.742188 107.675781 7.742188 Z M 102.660156 11.421875 C 102.851562 11.808594 102.851562 11.808594 102.851562 11.808594 Z M 102.464844 12.773438 C 102.660156 13.160156 102.660156 13.160156 102.660156 13.160156 Z M 102.464844 17.03125 C 102.660156 17.421875 102.660156 17.421875 102.660156 17.421875 Z M 102.464844 17.03125 "/>
<path style=" stroke:none;fill-rule:nonzero;fill:rgb(0%,0.392157%,0%);fill-opacity:1;" d="M 6.285156 2.46875 C 6.46875 2.464844 6.648438 2.464844 6.839844 2.464844 C 7.332031 2.515625 7.332031 2.515625 7.914062 2.902344 C 8.449219 2.824219 8.449219 2.824219 8.878906 2.515625 C 9.328125 2.507812 9.777344 2.507812 10.226562 2.515625 C 10.933594 4.449219 10.914062 6.667969 10.808594 8.710938 C 10.613281 8.902344 10.613281 8.902344 9.960938 8.976562 C 9.617188 8.941406 9.617188 8.941406 9.261719 8.902344 C 8.632812 8.074219 8.480469 7.179688 8.265625 6.183594 C 8.09375 5.582031 7.898438 5.144531 7.527344 4.644531 C 7.335938 4.644531 7.144531 4.644531 6.949219 4.644531 C 6.652344 5.695312 6.503906 6.644531 6.511719 7.738281 C 6.511719 7.886719 6.507812 8.03125 6.507812 8.179688 C 6.507812 8.660156 6.507812 9.136719 6.507812 9.613281 C 6.507812 9.945312 6.507812 10.28125 6.507812 10.613281 C 6.507812 11.3125 6.507812 12.007812 6.511719 12.707031 C 6.511719 13.601562 6.511719 14.492188 6.507812 15.386719 C 6.507812 16.074219 6.507812 16.761719 6.507812 17.453125 C 6.507812 17.78125 6.507812 18.109375 6.507812 18.4375 C 6.507812 18.898438 6.507812 19.359375 6.511719 19.820312 C 6.507812 19.953125 6.507812 20.089844 6.507812 20.230469 C 6.515625 20.992188 6.617188 21.574219 6.949219 22.257812 C 7.265625 22.257812 7.585938 22.257812 7.914062 22.257812 C 7.949219 22.039062 7.984375 21.820312 8.023438 21.59375 C 8.078125 21.308594 8.125 21.019531 8.175781 20.734375 C 8.214844 20.519531 8.214844 20.519531 8.25 20.296875 C 8.445312 19.207031 8.445312 19.207031 8.878906 18.773438 C 9.238281 18.722656 9.238281 18.722656 9.648438 18.726562 C 9.785156 18.722656 9.917969 18.722656 10.058594 18.722656 C 10.421875 18.773438 10.421875 18.773438 10.808594 19.160156 C 10.945312 20.457031 10.679688 21.511719 10.035156 22.644531 C 9.289062 23.507812 8.4375 24.125 7.285156 24.234375 C 5.8125 24.292969 4.660156 24.046875 3.546875 23.042969 C 1.507812 20.808594 0.859375 17.453125 0.773438 14.515625 C 0.761719 14.183594 0.761719 14.183594 0.75 13.84375 C 0.6875 10.382812 0.917969 6.339844 3.433594 3.699219 C 4.34375 2.890625 5.042969 2.460938 6.285156 2.46875 Z M 6.285156 2.46875 "/>
<path style=" stroke:none;fill-rule:nonzero;fill:rgb(20%,61.960784%,44.313725%);fill-opacity:1;" d="M 194.5 5.753906 C 194.738281 5.753906 194.738281 5.753906 194.976562 5.753906 C 195.136719 5.753906 195.296875 5.753906 195.460938 5.753906 C 195.804688 5.753906 196.144531 5.753906 196.484375 5.757812 C 197.007812 5.757812 197.527344 5.757812 198.046875 5.753906 C 198.378906 5.753906 198.710938 5.753906 199.039062 5.753906 C 199.277344 5.753906 199.277344 5.753906 199.511719 5.753906 C 200.261719 5.757812 200.628906 5.769531 201.265625 6.195312 C 200.609375 9.339844 199.804688 12.453125 199.011719 15.570312 C 198.828125 16.28125 198.648438 16.992188 198.46875 17.707031 C 198.113281 19.09375 197.761719 20.484375 197.40625 21.871094 C 197.882812 21.816406 197.882812 21.816406 198.371094 21.679688 C 198.679688 21.113281 198.679688 21.113281 198.878906 20.429688 C 199.28125 19.199219 199.28125 19.199219 199.917969 18.773438 C 200.53125 18.847656 200.53125 18.847656 201.074219 18.96875 C 201.363281 19.90625 201.160156 20.75 201.011719 21.699219 C 200.988281 21.878906 200.960938 22.058594 200.9375 22.242188 C 200.910156 22.410156 200.886719 22.578125 200.859375 22.757812 C 200.835938 22.910156 200.8125 23.066406 200.785156 23.226562 C 200.6875 23.613281 200.6875 23.613281 200.300781 24 C 199.71875 24.035156 199.15625 24.046875 198.574219 24.039062 C 198.40625 24.039062 198.234375 24.039062 198.058594 24.035156 C 197.511719 24.035156 196.964844 24.03125 196.417969 24.023438 C 196.046875 24.023438 195.679688 24.019531 195.308594 24.019531 C 194.398438 24.015625 193.492188 24.007812 192.582031 24 C 192.230469 22.785156 192.628906 21.59375 192.925781 20.398438 C 192.960938 20.257812 192.996094 20.117188 193.03125 19.972656 C 193.140625 19.515625 193.253906 19.0625 193.367188 18.605469 C 193.484375 18.125 193.601562 17.644531 193.71875 17.167969 C 193.800781 16.839844 193.878906 16.511719 193.960938 16.183594 C 194.234375 15.070312 194.5 13.957031 194.765625 12.839844 C 194.867188 12.402344 194.972656 11.960938 195.078125 11.523438 C 195.140625 11.246094 195.207031 10.96875 195.273438 10.6875 C 195.363281 10.300781 195.457031 9.910156 195.550781 9.523438 C 195.601562 9.304688 195.652344 9.085938 195.707031 8.859375 C 195.863281 8.324219 195.863281 8.324219 196.25 7.742188 C 195.773438 7.851562 195.773438 7.851562 195.285156 8.128906 C 194.980469 8.65625 194.980469 8.65625 194.777344 9.277344 C 194.292969 10.617188 194.292969 10.617188 193.742188 11.03125 C 193.222656 11.070312 193.222656 11.070312 192.777344 11.03125 C 192.0625 9.53125 192.488281 7.730469 192.96875 6.195312 C 193.46875 5.691406 193.820312 5.757812 194.5 5.753906 Z M 192.777344 7.742188 C 192.96875 8.128906 192.96875 8.128906 192.96875 8.128906 Z M 195.476562 10.644531 C 195.671875 11.03125 195.671875 11.03125 195.671875 11.03125 Z M 195.09375 12.195312 C 195.285156 12.582031 195.285156 12.582031 195.285156 12.582031 Z M 197.214844 22.066406 C 197.988281 22.257812 197.988281 22.257812 197.988281 22.257812 Z M 197.214844 22.066406 "/>
<path style=" stroke:none;fill-rule:nonzero;fill:rgb(20%,61.568627%,43.921569%);fill-opacity:1;" d="M 155.425781 5.984375 C 156.636719 6.703125 157.503906 7.726562 157.957031 9.066406 C 158.101562 9.792969 158.046875 10.511719 157.847656 11.226562 C 157.722656 11.355469 157.59375 11.480469 157.460938 11.613281 C 157.335938 11.550781 157.207031 11.484375 157.078125 11.417969 C 157.171875 11.707031 157.171875 11.707031 157.269531 12 C 157.078125 12.195312 157.078125 12.195312 156.460938 12.289062 C 155.601562 12.175781 155.304688 12.019531 154.777344 11.347656 C 154.3125 10.226562 154.492188 8.933594 154.566406 7.742188 C 153.996094 7.644531 153.996094 7.644531 153.410156 7.546875 C 153.472656 7.738281 153.539062 7.933594 153.601562 8.128906 C 153.621094 8.566406 153.625 9.003906 153.625 9.4375 C 153.625 9.570312 153.625 9.703125 153.625 9.839844 C 153.625 10.277344 153.625 10.714844 153.621094 11.148438 C 153.621094 11.453125 153.621094 11.757812 153.621094 12.058594 C 153.621094 12.855469 153.617188 13.652344 153.617188 14.449219 C 153.613281 15.261719 153.613281 16.074219 153.613281 16.890625 C 153.609375 18.484375 153.605469 20.082031 153.601562 21.675781 C 154.273438 21.582031 154.273438 21.582031 154.953125 21.484375 C 155.253906 20.328125 155.5 19.171875 155.726562 18 C 156.453125 17.757812 156.910156 17.824219 157.65625 18 C 158.15625 18.722656 158.070312 19.34375 157.964844 20.179688 C 157.621094 21.746094 156.847656 22.90625 155.53125 23.804688 C 154.636719 24.257812 153.421875 24.078125 152.445312 24 C 151.792969 23.710938 151.792969 23.710938 151.289062 23.226562 C 151.152344 23.105469 151.019531 22.984375 150.882812 22.863281 C 149.675781 21.734375 149.675781 21.734375 149.550781 20.710938 C 149.421875 20.710938 149.296875 20.710938 149.164062 20.710938 C 148.316406 18.753906 148.355469 16.71875 148.34375 14.613281 C 148.339844 14.410156 148.335938 14.207031 148.332031 13.996094 C 148.324219 11.960938 148.800781 10.234375 149.71875 8.429688 C 149.78125 8.300781 149.847656 8.167969 149.910156 8.03125 C 150.40625 7.042969 150.945312 6.464844 151.949219 5.957031 C 153.050781 5.625 154.34375 5.578125 155.425781 5.984375 Z M 155.53125 19.933594 C 155.726562 20.515625 155.726562 20.515625 155.726562 20.515625 Z M 155.53125 19.933594 "/>
<path style=" stroke:none;fill-rule:nonzero;fill:rgb(20%,61.960784%,43.921569%);fill-opacity:1;" d="M 179.152344 2.46875 C 179.339844 2.46875 179.53125 2.472656 179.726562 2.472656 C 179.929688 2.472656 180.136719 2.472656 180.351562 2.472656 C 180.566406 2.476562 180.78125 2.476562 181.003906 2.480469 C 181.328125 2.480469 181.328125 2.480469 181.660156 2.480469 C 183.265625 2.488281 183.265625 2.488281 183.707031 2.710938 C 183.707031 3.0625 183.707031 3.0625 183.710938 3.425781 C 183.722656 5.644531 183.734375 7.867188 183.753906 10.089844 C 183.761719 11.230469 183.769531 12.371094 183.773438 13.515625 C 183.777344 14.617188 183.785156 15.71875 183.792969 16.820312 C 183.796875 17.242188 183.800781 17.664062 183.800781 18.082031 C 183.804688 18.671875 183.808594 19.257812 183.816406 19.847656 C 183.816406 20.109375 183.816406 20.109375 183.8125 20.378906 C 183.828125 21.265625 183.851562 21.773438 184.476562 22.449219 C 184.539062 23.058594 184.539062 23.058594 184.476562 23.613281 C 183.839844 24.253906 183.027344 24.058594 182.15625 24.0625 C 181.902344 24.0625 181.652344 24.0625 181.390625 24.0625 C 181.136719 24.0625 180.882812 24.066406 180.625 24.070312 C 180.382812 24.070312 180.144531 24.070312 179.894531 24.070312 C 179.671875 24.070312 179.449219 24.070312 179.222656 24.074219 C 179.046875 24.046875 178.871094 24.023438 178.6875 24 C 178.242188 23.328125 178.222656 23.046875 178.304688 22.257812 C 178.398438 22.183594 178.492188 22.109375 178.59375 22.03125 C 179.066406 21.453125 178.960938 20.773438 178.957031 20.058594 C 178.957031 19.890625 178.957031 19.726562 178.960938 19.554688 C 178.960938 19.007812 178.960938 18.460938 178.957031 17.917969 C 178.957031 17.535156 178.957031 17.15625 178.960938 16.777344 C 178.960938 15.980469 178.960938 15.183594 178.957031 14.386719 C 178.953125 13.367188 178.957031 12.347656 178.957031 11.324219 C 178.960938 10.539062 178.960938 9.757812 178.957031 8.972656 C 178.957031 8.597656 178.957031 8.21875 178.960938 7.84375 C 178.960938 7.316406 178.960938 6.792969 178.957031 6.265625 C 178.957031 6.109375 178.957031 5.953125 178.960938 5.792969 C 178.96875 4.980469 178.96875 4.980469 178.59375 4.289062 C 178.496094 4.21875 178.402344 4.140625 178.304688 4.0625 C 178.242188 3.472656 178.242188 3.472656 178.304688 2.902344 C 178.6875 2.515625 178.6875 2.515625 179.152344 2.46875 Z M 179.152344 2.46875 "/>
<path style=" stroke:none;fill-rule:nonzero;fill:rgb(19.607843%,61.176471%,43.529412%);fill-opacity:1;" d="M 119.832031 6.195312 C 119.832031 6.066406 119.832031 5.9375 119.832031 5.804688 C 120.34375 5.871094 120.851562 5.933594 121.378906 6 C 121.871094 7.546875 122.074219 9.023438 122.148438 10.644531 C 121.570312 10.714844 121.164062 10.757812 120.605469 10.644531 C 120.167969 10.269531 119.90625 9.8125 119.617188 9.3125 C 119.019531 8.28125 119.019531 8.28125 118.039062 7.65625 C 117.78125 7.601562 117.78125 7.601562 117.519531 7.546875 C 118.269531 9.347656 119.214844 11.023438 120.167969 12.722656 C 120.542969 13.398438 120.914062 14.078125 121.28125 14.757812 C 121.402344 14.984375 121.523438 15.207031 121.648438 15.4375 C 122.570312 17.316406 122.875 19.636719 122.308594 21.679688 C 121.90625 22.644531 121.273438 23.425781 120.414062 24 C 119.097656 24.199219 118.210938 23.980469 117.132812 23.226562 C 117.066406 23.480469 117.003906 23.738281 116.9375 24 C 116.492188 24 116.046875 24 115.589844 24 C 115.523438 23.746094 115.460938 23.488281 115.394531 23.226562 C 115.269531 23.226562 115.140625 23.226562 115.007812 23.226562 C 114.910156 22.761719 114.816406 22.296875 114.71875 21.835938 C 114.691406 21.703125 114.664062 21.574219 114.636719 21.4375 C 114.492188 20.738281 114.355469 20.070312 114.429688 19.355469 C 114.816406 18.96875 114.816406 18.96875 115.359375 18.871094 C 116.070312 18.984375 116.269531 19.199219 116.691406 19.765625 C 116.773438 19.886719 116.855469 20.007812 116.9375 20.128906 C 117.132812 20.414062 117.332031 20.695312 117.53125 20.976562 C 117.621094 21.109375 117.710938 21.242188 117.800781 21.378906 C 117.898438 21.476562 117.996094 21.578125 118.097656 21.675781 C 118.351562 21.675781 118.605469 21.675781 118.867188 21.675781 C 118.964844 20.757812 118.632812 20.101562 118.214844 19.304688 C 118.148438 19.171875 118.082031 19.039062 118.011719 18.898438 C 117.410156 17.738281 116.746094 16.625 116.074219 15.503906 C 114.75 13.269531 113.753906 10.925781 114.332031 8.269531 C 114.6875 7.378906 115.320312 6.476562 116.140625 5.972656 C 117.324219 5.5 118.671875 5.789062 119.832031 6.195312 Z M 114.816406 21.097656 C 115.007812 21.484375 115.007812 21.484375 115.007812 21.484375 Z M 114.816406 21.097656 "/>
<path style=" stroke:none;fill-rule:nonzero;fill:rgb(0%,0.392157%,0%);fill-opacity:1;" d="M 60.109375 2.664062 C 60.308594 2.664062 60.507812 2.664062 60.714844 2.664062 C 60.929688 2.664062 61.144531 2.667969 61.367188 2.667969 C 61.703125 2.671875 61.703125 2.671875 62.050781 2.675781 C 62.277344 2.675781 62.503906 2.675781 62.738281 2.675781 C 64.421875 2.683594 64.421875 2.683594 64.644531 2.902344 C 64.667969 3.492188 64.675781 4.074219 64.679688 4.660156 C 64.679688 4.9375 64.679688 4.9375 64.683594 5.21875 C 64.683594 5.621094 64.6875 6.023438 64.6875 6.425781 C 64.691406 7.058594 64.695312 7.695312 64.703125 8.328125 C 64.714844 10.136719 64.726562 11.941406 64.738281 13.75 C 64.742188 14.851562 64.75 15.957031 64.757812 17.058594 C 64.761719 17.480469 64.765625 17.902344 64.765625 18.324219 C 64.769531 18.910156 64.773438 19.5 64.777344 20.089844 C 64.777344 20.265625 64.777344 20.441406 64.777344 20.621094 C 64.746094 21.535156 64.746094 21.535156 65.222656 22.257812 C 65.285156 22.785156 65.246094 23.277344 65.222656 23.804688 C 64.691406 24.339844 63.058594 24.035156 62.339844 24.035156 C 62.085938 24.039062 61.835938 24.039062 61.570312 24.042969 C 61.332031 24.042969 61.089844 24.042969 60.839844 24.042969 C 60.503906 24.046875 60.503906 24.046875 60.164062 24.046875 C 59.625 24 59.625 24 59.242188 23.613281 C 59.226562 23.25 59.226562 23.25 59.277344 22.839844 C 59.292969 22.703125 59.304688 22.566406 59.320312 22.429688 C 59.433594 22.0625 59.433594 22.0625 60.011719 21.675781 C 60.074219 21.136719 60.09375 20.640625 60.089844 20.097656 C 60.089844 19.9375 60.09375 19.773438 60.09375 19.605469 C 60.097656 19.066406 60.097656 18.523438 60.097656 17.984375 C 60.097656 17.609375 60.097656 17.234375 60.097656 16.859375 C 60.101562 16.070312 60.101562 15.285156 60.097656 14.496094 C 60.097656 13.488281 60.101562 12.476562 60.105469 11.46875 C 60.109375 10.691406 60.109375 9.917969 60.109375 9.144531 C 60.109375 8.769531 60.109375 8.398438 60.113281 8.027344 C 60.113281 7.507812 60.113281 6.988281 60.109375 6.464844 C 60.113281 6.3125 60.113281 6.15625 60.113281 6 C 60.105469 5.296875 60.085938 4.925781 59.625 4.382812 C 59.5 4.277344 59.371094 4.171875 59.242188 4.0625 C 59.167969 3.558594 59.167969 3.558594 59.242188 3.097656 C 59.625 2.710938 59.625 2.710938 60.109375 2.664062 Z M 60.109375 2.664062 "/>
<path style=" stroke:none;fill-rule:nonzero;fill:rgb(0%,0.392157%,0%);fill-opacity:1;" d="M 42.1875 6.195312 C 42.339844 6.257812 42.492188 6.320312 42.648438 6.386719 C 42.773438 6.257812 42.898438 6.132812 43.03125 6 C 43.730469 5.976562 43.730469 5.976562 44.382812 6 C 44.511719 6.519531 44.640625 7.039062 44.769531 7.558594 C 44.804688 7.707031 44.84375 7.851562 44.878906 8 C 45.101562 8.910156 45.195312 9.710938 45.15625 10.644531 C 44.207031 10.832031 44.207031 10.832031 43.613281 10.644531 C 43.140625 10.144531 42.78125 9.617188 42.40625 9.039062 C 42.125 8.601562 41.894531 8.253906 41.488281 7.933594 C 41.296875 7.933594 41.105469 7.933594 40.910156 7.933594 C 41.007812 8.972656 41.371094 9.671875 41.886719 10.546875 C 41.964844 10.683594 42.042969 10.816406 42.121094 10.957031 C 42.359375 11.367188 42.597656 11.78125 42.839844 12.195312 C 43.359375 13.089844 43.875 13.996094 44.382812 14.902344 C 44.464844 15.046875 44.550781 15.191406 44.636719 15.335938 C 45.5625 17.105469 45.816406 19.761719 45.300781 21.679688 C 44.921875 22.675781 44.34375 23.476562 43.417969 24 C 42.253906 24.175781 41.339844 24.058594 40.332031 23.417969 C 40.203125 23.609375 40.078125 23.800781 39.945312 24 C 39.570312 24.054688 39.570312 24.054688 39.148438 24.035156 C 38.902344 24.023438 38.65625 24.011719 38.402344 24 C 38.269531 23.40625 38.144531 22.816406 38.015625 22.222656 C 37.976562 22.054688 37.941406 21.886719 37.902344 21.714844 C 37.871094 21.550781 37.835938 21.390625 37.796875 21.21875 C 37.765625 21.070312 37.730469 20.921875 37.699219 20.769531 C 37.625 20.289062 37.605469 19.839844 37.628906 19.355469 C 37.824219 19.160156 37.824219 19.160156 38.460938 19.085938 C 39.171875 19.160156 39.171875 19.160156 39.59375 19.570312 C 39.710938 19.753906 39.824219 19.9375 39.945312 20.128906 C 40.082031 20.332031 40.214844 20.535156 40.355469 20.746094 C 40.472656 20.925781 40.59375 21.105469 40.71875 21.289062 C 40.84375 21.417969 40.96875 21.546875 41.101562 21.675781 C 41.355469 21.675781 41.609375 21.675781 41.875 21.675781 C 41.785156 20.566406 41.566406 19.746094 41.007812 18.773438 C 40.9375 18.652344 40.871094 18.527344 40.800781 18.402344 C 40.582031 18.007812 40.359375 17.617188 40.136719 17.226562 C 36.914062 11.574219 36.914062 11.574219 37.527344 8.222656 C 37.84375 7.238281 38.355469 6.769531 39.171875 6.195312 C 40.066406 5.746094 41.257812 5.9375 42.1875 6.195312 Z M 42.1875 6.195312 "/>
<path style=" stroke:none;fill-rule:nonzero;fill:rgb(0%,0.392157%,0%);fill-opacity:1;" d="M 87.753906 5.972656 C 88.023438 5.972656 88.023438 5.972656 88.300781 5.972656 C 88.585938 5.972656 88.585938 5.972656 88.875 5.976562 C 89.0625 5.972656 89.253906 5.972656 89.449219 5.972656 C 89.632812 5.972656 89.808594 5.972656 89.996094 5.972656 C 90.164062 5.972656 90.328125 5.972656 90.5 5.972656 C 90.890625 6 90.890625 6 91.082031 6.191406 C 91.125 6.617188 91.160156 7.039062 91.191406 7.464844 C 91.214844 7.8125 91.214844 7.8125 91.238281 8.164062 C 91.25 8.34375 91.261719 8.523438 91.273438 8.710938 C 91.320312 8.578125 91.367188 8.449219 91.414062 8.3125 C 92.117188 6.441406 92.117188 6.441406 92.820312 6 C 93.492188 5.890625 93.492188 5.890625 94.167969 6 C 95.007812 6.820312 95.164062 7.542969 95.183594 8.6875 C 95.1875 8.886719 95.191406 9.085938 95.195312 9.289062 C 95.117188 10.003906 94.871094 10.519531 94.363281 11.03125 C 93.710938 11.09375 93.710938 11.09375 93.011719 11.03125 C 92.675781 10.65625 92.675781 10.65625 92.433594 10.257812 C 92.242188 10.195312 92.050781 10.128906 91.855469 10.0625 C 91.835938 11.566406 91.820312 13.066406 91.8125 14.566406 C 91.808594 15.265625 91.804688 15.960938 91.792969 16.65625 C 91.785156 17.328125 91.78125 18.003906 91.78125 18.675781 C 91.777344 19.054688 91.769531 19.4375 91.765625 19.820312 C 91.765625 20.167969 91.765625 20.167969 91.765625 20.523438 C 91.761719 20.726562 91.761719 20.933594 91.761719 21.144531 C 91.878906 21.808594 92.140625 22 92.625 22.449219 C 92.6875 23.164062 92.6875 23.164062 92.625 23.804688 C 92.265625 24.164062 91.675781 24.023438 91.195312 24.027344 C 90.945312 24.027344 90.695312 24.027344 90.4375 24.027344 C 90.304688 24.027344 90.171875 24.027344 90.039062 24.023438 C 89.632812 24.023438 89.234375 24.023438 88.832031 24.027344 C 88.457031 24.027344 88.457031 24.027344 88.070312 24.027344 C 87.839844 24.023438 87.609375 24.023438 87.371094 24.023438 C 86.835938 24 86.835938 24 86.644531 23.804688 C 86.589844 22.695312 86.589844 22.695312 86.644531 22.257812 C 86.835938 22.066406 86.835938 22.066406 87.03125 21.871094 C 87.089844 21.269531 87.089844 21.269531 87.082031 20.554688 C 87.082031 20.351562 87.082031 20.351562 87.085938 20.144531 C 87.085938 19.695312 87.085938 19.246094 87.085938 18.796875 C 87.085938 18.488281 87.089844 18.175781 87.089844 17.867188 C 87.089844 17.214844 87.089844 16.5625 87.089844 15.910156 C 87.089844 15.074219 87.089844 14.234375 87.097656 13.398438 C 87.097656 12.757812 87.097656 12.113281 87.097656 11.472656 C 87.097656 11.164062 87.097656 10.855469 87.101562 10.546875 C 87.105469 10.113281 87.101562 9.683594 87.101562 9.253906 C 87.101562 9.007812 87.101562 8.761719 87.101562 8.507812 C 87.078125 8.320312 87.054688 8.128906 87.03125 7.933594 C 86.839844 7.808594 86.648438 7.679688 86.449219 7.546875 C 86.414062 6.847656 86.414062 6.847656 86.449219 6.191406 C 86.917969 5.957031 87.226562 5.972656 87.753906 5.972656 Z M 87.753906 5.972656 "/>
<path style=" stroke:none;fill-rule:nonzero;fill:rgb(0%,0.392157%,0%);fill-opacity:1;" d="M 69.855469 2.515625 C 70.304688 2.507812 70.753906 2.507812 71.207031 2.515625 C 71.398438 2.710938 71.398438 2.710938 71.417969 3.449219 C 71.414062 3.753906 71.414062 4.0625 71.410156 4.367188 C 71.410156 4.523438 71.40625 4.679688 71.40625 4.839844 C 71.40625 5.226562 71.402344 5.613281 71.398438 6 C 71.679688 5.996094 71.679688 5.996094 71.964844 5.988281 C 72.554688 6 72.554688 6 72.75 6.195312 C 72.773438 6.871094 72.773438 6.871094 72.75 7.546875 C 72.554688 7.742188 72.554688 7.742188 71.964844 7.753906 C 71.777344 7.75 71.589844 7.746094 71.398438 7.742188 C 71.398438 9.511719 71.410156 11.285156 71.421875 13.058594 C 71.429688 13.878906 71.433594 14.703125 71.4375 15.523438 C 71.4375 16.320312 71.441406 17.113281 71.449219 17.910156 C 71.453125 18.210938 71.453125 18.511719 71.453125 18.816406 C 71.453125 19.242188 71.457031 19.667969 71.464844 20.089844 C 71.464844 20.332031 71.464844 20.574219 71.46875 20.820312 C 71.628906 21.6875 71.972656 21.996094 72.554688 22.644531 C 72.628906 23.285156 72.628906 23.285156 72.554688 23.804688 C 72.074219 24.289062 70.824219 24.0625 70.179688 24.074219 C 69.875 24.082031 69.875 24.082031 69.5625 24.09375 C 68.054688 24.113281 68.054688 24.113281 67.410156 23.5625 C 66.964844 22.648438 66.933594 21.84375 66.9375 20.835938 C 66.9375 20.695312 66.9375 20.554688 66.9375 20.40625 C 66.9375 19.941406 66.9375 19.476562 66.941406 19.007812 C 66.941406 18.683594 66.941406 18.359375 66.941406 18.035156 C 66.941406 17.179688 66.945312 16.328125 66.945312 15.476562 C 66.949219 14.605469 66.949219 13.734375 66.949219 12.863281 C 66.953125 11.15625 66.957031 9.449219 66.960938 7.742188 C 66.707031 7.742188 66.449219 7.742188 66.1875 7.742188 C 66.1875 7.230469 66.1875 6.71875 66.1875 6.195312 C 66.316406 6.136719 66.445312 6.082031 66.574219 6.023438 C 68.347656 5.195312 69.035156 4.277344 69.855469 2.515625 Z M 69.855469 2.515625 "/>
<path style=" stroke:none;fill-rule:nonzero;fill:rgb(20.392157%,62.352941%,44.705882%);fill-opacity:1;" d="M 188.035156 5.757812 C 188.34375 5.753906 188.34375 5.753906 188.65625 5.746094 C 188.855469 5.746094 189.050781 5.746094 189.253906 5.742188 C 189.433594 5.742188 189.613281 5.738281 189.800781 5.738281 C 190.265625 5.804688 190.265625 5.804688 190.582031 6.007812 C 190.992188 6.59375 190.921875 7.203125 190.910156 7.894531 C 190.910156 8.121094 190.910156 8.121094 190.910156 8.355469 C 190.910156 8.863281 190.90625 9.367188 190.902344 9.871094 C 190.902344 10.222656 190.902344 10.574219 190.898438 10.925781 C 190.898438 11.847656 190.890625 12.773438 190.886719 13.695312 C 190.878906 14.636719 190.875 15.578125 190.875 16.519531 C 190.867188 18.367188 190.859375 20.214844 190.84375 22.066406 C 191.132812 22.160156 191.132812 22.160156 191.425781 22.257812 C 191.632812 23.007812 191.609375 23.328125 191.230469 24 C 190.472656 24.011719 189.714844 24.023438 188.953125 24.03125 C 188.570312 24.035156 188.183594 24.042969 187.800781 24.050781 C 187.558594 24.050781 187.316406 24.054688 187.066406 24.054688 C 186.84375 24.058594 186.621094 24.0625 186.390625 24.066406 C 185.828125 24 185.828125 24 185.464844 23.738281 C 185.171875 23.300781 185.210938 22.96875 185.25 22.453125 C 185.632812 22.261719 185.632812 22.261719 186.019531 22.066406 C 186.011719 20.230469 185.996094 18.402344 185.976562 16.566406 C 185.96875 15.71875 185.960938 14.867188 185.957031 14.015625 C 185.949219 13.195312 185.941406 12.375 185.933594 11.554688 C 185.929688 11.238281 185.925781 10.929688 185.925781 10.613281 C 185.925781 10.175781 185.917969 9.738281 185.910156 9.296875 C 185.910156 9.046875 185.90625 8.796875 185.90625 8.542969 C 185.820312 7.878906 185.726562 7.777344 185.25 7.355469 C 185.285156 6.652344 185.285156 6.652344 185.441406 6 C 186.214844 5.613281 187.1875 5.761719 188.035156 5.757812 Z M 185.441406 22.453125 C 185.636719 22.839844 185.636719 22.839844 185.636719 22.839844 Z M 185.441406 22.453125 "/>
<path style=" stroke:none;fill-rule:nonzero;fill:rgb(20%,61.960784%,44.313725%);fill-opacity:1;" d="M 161.214844 5.769531 C 161.519531 5.765625 161.519531 5.765625 161.835938 5.761719 C 162.03125 5.761719 162.226562 5.761719 162.429688 5.761719 C 162.609375 5.761719 162.792969 5.761719 162.976562 5.757812 C 163.445312 5.808594 163.445312 5.808594 164.023438 6.195312 C 164.082031 6.699219 164.101562 7.160156 164.097656 7.667969 C 164.097656 7.820312 164.101562 7.972656 164.101562 8.128906 C 164.101562 8.457031 164.105469 8.789062 164.101562 9.121094 C 164.101562 9.644531 164.105469 10.164062 164.109375 10.6875 C 164.117188 11.800781 164.117188 12.910156 164.121094 14.019531 C 164.121094 15.304688 164.128906 16.589844 164.136719 17.875 C 164.140625 18.394531 164.136719 18.910156 164.136719 19.425781 C 164.140625 19.742188 164.140625 20.054688 164.144531 20.371094 C 164.140625 20.515625 164.140625 20.660156 164.140625 20.808594 C 164.136719 21.574219 164.136719 21.574219 164.507812 22.210938 C 164.601562 22.289062 164.699219 22.371094 164.792969 22.453125 C 164.84375 23.152344 164.84375 23.152344 164.792969 23.808594 C 164.601562 24 164.601562 24 164.066406 24.023438 C 163.832031 24.023438 163.601562 24.019531 163.359375 24.019531 C 163.109375 24.019531 162.855469 24.019531 162.597656 24.019531 C 162.328125 24.015625 162.058594 24.015625 161.792969 24.011719 C 161.523438 24.011719 161.253906 24.011719 160.984375 24.011719 C 160.324219 24.007812 159.664062 24.003906 159.003906 24 C 158.554688 22.738281 158.554688 22.738281 158.8125 22.066406 C 158.941406 22.066406 159.066406 22.066406 159.199219 22.066406 C 159.199219 17.339844 159.199219 12.613281 159.199219 7.742188 C 159.070312 7.742188 158.945312 7.742188 158.8125 7.742188 C 158.75 7.167969 158.683594 6.59375 158.621094 6 C 159.390625 5.613281 160.367188 5.769531 161.214844 5.769531 Z M 159.390625 8.324219 C 159.390625 12.792969 159.390625 17.265625 159.390625 21.871094 C 159.457031 21.871094 159.519531 21.871094 159.585938 21.871094 C 159.585938 17.402344 159.585938 12.929688 159.585938 8.324219 C 159.519531 8.324219 159.457031 8.324219 159.390625 8.324219 Z M 159.390625 8.324219 "/>
<path style=" stroke:none;fill-rule:nonzero;fill:rgb(20%,61.960784%,44.313725%);fill-opacity:1;" d="M 163.058594 1.933594 C 163.058594 2.0625 163.058594 2.191406 163.058594 2.324219 C 163.378906 2.449219 163.695312 2.578125 164.023438 2.710938 C 164.023438 3.359375 164.003906 3.859375 163.566406 4.371094 C 162.527344 5.144531 161.457031 5.140625 160.195312 5.144531 C 159.480469 5.011719 159.242188 4.839844 158.8125 4.257812 C 158.789062 3.675781 158.789062 3.675781 159.007812 3.097656 C 160.222656 2.050781 161.519531 1.882812 163.058594 1.933594 Z M 163.058594 1.933594 "/>
<path style=" stroke:none;fill-rule:nonzero;fill:rgb(19.607843%,61.568627%,43.921569%);fill-opacity:1;" d="M 190.042969 2.152344 C 190.363281 2.417969 190.363281 2.417969 190.847656 2.902344 C 190.800781 3.664062 190.660156 3.863281 190.097656 4.402344 C 189.269531 5.003906 188.679688 5.074219 187.675781 5.105469 C 187.457031 5.113281 187.238281 5.125 187.011719 5.132812 C 186.410156 5.03125 186.410156 5.03125 185.945312 4.574219 C 185.636719 4.066406 185.636719 4.066406 185.613281 3.570312 C 185.996094 2.730469 186.726562 2.4375 187.542969 2.082031 C 189.25 1.667969 189.25 1.667969 190.042969 2.152344 Z M 190.042969 2.152344 "/>
<path style=" stroke:none;fill-rule:nonzero;fill:rgb(19.215686%,60.784314%,43.137255%);fill-opacity:1;" d="M 227.894531 13.355469 C 227.960938 13.355469 228.023438 13.355469 228.089844 13.355469 C 228.089844 14.570312 228.089844 15.78125 228.089844 17.03125 C 228.023438 17.03125 227.960938 17.03125 227.894531 17.03125 C 227.894531 15.820312 227.894531 14.605469 227.894531 13.355469 Z M 227.894531 13.355469 "/>
<path style=" stroke:none;fill-rule:nonzero;fill:rgb(19.215686%,60.784314%,43.137255%);fill-opacity:1;" d="M 148.199219 13.355469 C 148.265625 13.355469 148.328125 13.355469 148.394531 13.355469 C 148.394531 14.570312 148.394531 15.78125 148.394531 17.03125 C 148.328125 17.03125 148.265625 17.03125 148.199219 17.03125 C 148.199219 15.820312 148.199219 14.605469 148.199219 13.355469 Z M 148.199219 13.355469 "/>
<path style=" stroke:none;fill-rule:nonzero;fill:rgb(19.215686%,60.784314%,43.137255%);fill-opacity:1;" d="M 214.773438 13.933594 C 214.839844 13.933594 214.902344 13.933594 214.96875 13.933594 C 214.96875 14.894531 214.96875 15.851562 214.96875 16.839844 C 214.902344 16.839844 214.839844 16.839844 214.773438 16.839844 C 214.773438 15.878906 214.773438 14.921875 214.773438 13.933594 Z M 214.773438 13.933594 "/>
<path style=" stroke:none;fill-rule:nonzero;fill:rgb(19.215686%,60.784314%,43.137255%);fill-opacity:1;" d="M 201.84375 17.226562 C 201.910156 17.226562 201.972656 17.226562 202.039062 17.226562 C 202.039062 18.054688 202.039062 18.886719 202.039062 19.742188 C 201.972656 19.742188 201.910156 19.742188 201.84375 19.742188 C 201.84375 18.910156 201.84375 18.082031 201.84375 17.226562 Z M 201.84375 17.226562 "/>
<path style=" stroke:none;fill-rule:nonzero;fill:rgb(19.215686%,60.784314%,43.137255%);fill-opacity:1;" d="M 206.863281 5.613281 C 207.5625 5.613281 208.261719 5.613281 208.984375 5.613281 C 208.984375 5.675781 208.984375 5.742188 208.984375 5.804688 C 208.285156 5.804688 207.585938 5.804688 206.863281 5.804688 C 206.863281 5.742188 206.863281 5.679688 206.863281 5.613281 Z M 206.863281 5.613281 "/>
<path style=" stroke:none;fill-rule:nonzero;fill:rgb(19.215686%,60.784314%,43.137255%);fill-opacity:1;" d="M 170.390625 5.613281 C 171.09375 5.613281 171.792969 5.613281 172.515625 5.613281 C 172.515625 5.675781 172.515625 5.742188 172.515625 5.804688 C 171.8125 5.804688 171.113281 5.804688 170.390625 5.804688 C 170.390625 5.742188 170.390625 5.679688 170.390625 5.613281 Z M 170.390625 5.613281 "/>
<path style=" stroke:none;fill-rule:nonzero;fill:rgb(19.215686%,60.784314%,43.137255%);fill-opacity:1;" d="M 233.300781 5.613281 C 233.746094 5.613281 234.191406 5.613281 234.648438 5.613281 C 234.648438 5.675781 234.648438 5.742188 234.648438 5.804688 C 234.203125 5.804688 233.757812 5.804688 233.300781 5.804688 C 233.300781 5.742188 233.300781 5.679688 233.300781 5.613281 Z M 233.300781 5.613281 "/>
<path style=" stroke:none;fill-rule:nonzero;fill:rgb(19.215686%,60.784314%,43.137255%);fill-opacity:1;" d="M 153.21875 5.613281 C 153.664062 5.613281 154.109375 5.613281 154.566406 5.613281 C 154.566406 5.675781 154.566406 5.742188 154.566406 5.804688 C 154.121094 5.804688 153.675781 5.804688 153.21875 5.804688 C 153.21875 5.742188 153.21875 5.679688 153.21875 5.613281 Z M 153.21875 5.613281 "/>
<path style=" stroke:none;fill-rule:nonzero;fill:rgb(19.215686%,60.784314%,43.137255%);fill-opacity:1;" d="M 141.640625 5.613281 C 142.085938 5.613281 142.53125 5.613281 142.988281 5.613281 C 142.988281 5.675781 142.988281 5.742188 142.988281 5.804688 C 142.542969 5.804688 142.097656 5.804688 141.640625 5.804688 C 141.640625 5.742188 141.640625 5.679688 141.640625 5.613281 Z M 141.640625 5.613281 "/>
<path style=" stroke:none;fill-rule:nonzero;fill:rgb(19.215686%,60.784314%,43.137255%);fill-opacity:1;" d="M 107.675781 5.613281 C 108.121094 5.613281 108.566406 5.613281 109.027344 5.613281 C 109.027344 5.675781 109.027344 5.742188 109.027344 5.804688 C 108.582031 5.804688 108.136719 5.804688 107.675781 5.804688 C 107.675781 5.742188 107.675781 5.679688 107.675781 5.613281 Z M 107.675781 5.613281 "/>
<path style=" stroke:none;fill-rule:nonzero;fill:rgb(19.215686%,60.784314%,43.137255%);fill-opacity:1;" d="M 130.640625 5.613281 C 131.023438 5.613281 131.402344 5.613281 131.796875 5.613281 C 131.796875 5.675781 131.796875 5.742188 131.796875 5.804688 C 131.414062 5.804688 131.035156 5.804688 130.640625 5.804688 C 130.640625 5.742188 130.640625 5.679688 130.640625 5.613281 Z M 130.640625 5.613281 "/>
<path style=" stroke:none;fill-rule:nonzero;fill:rgb(19.215686%,60.784314%,43.137255%);fill-opacity:1;" d="M 145.5 17.613281 C 145.816406 17.613281 146.136719 17.613281 146.464844 17.613281 C 146.464844 17.675781 146.464844 17.742188 146.464844 17.804688 C 146.144531 17.804688 145.828125 17.804688 145.5 17.804688 C 145.5 17.742188 145.5 17.679688 145.5 17.613281 Z M 145.5 17.613281 "/>
<path style=" stroke:none;fill-rule:nonzero;fill:rgb(19.215686%,60.784314%,43.137255%);fill-opacity:1;" d="M 111.535156 17.613281 C 111.855469 17.613281 112.171875 17.613281 112.5 17.613281 C 112.5 17.675781 112.5 17.742188 112.5 17.804688 C 112.183594 17.804688 111.863281 17.804688 111.535156 17.804688 C 111.535156 17.742188 111.535156 17.679688 111.535156 17.613281 Z M 111.535156 17.613281 "/>
<path style=" stroke:none;fill-rule:nonzero;fill:rgb(19.215686%,60.784314%,43.137255%);fill-opacity:1;" d="M 218.632812 5.613281 C 218.953125 5.613281 219.269531 5.613281 219.597656 5.613281 C 219.597656 5.675781 219.597656 5.742188 219.597656 5.804688 C 219.28125 5.804688 218.960938 5.804688 218.632812 5.804688 C 218.632812 5.742188 218.632812 5.679688 218.632812 5.613281 Z M 218.632812 5.613281 "/>
<path style=" stroke:none;fill-rule:nonzero;fill:rgb(19.215686%,60.784314%,43.137255%);fill-opacity:1;" d="M 156.304688 17.613281 C 157.078125 17.804688 157.078125 17.804688 157.078125 17.804688 Z M 156.304688 17.613281 "/>
<path style=" stroke:none;fill-rule:nonzero;fill:rgb(19.215686%,60.784314%,43.137255%);fill-opacity:1;" d="M 158.425781 6.386719 C 158.621094 7.160156 158.621094 7.160156 158.621094 7.160156 Z M 158.425781 6.386719 "/>
<path style=" stroke:none;fill-rule:nonzero;fill:rgb(19.215686%,60.784314%,43.137255%);fill-opacity:1;" d="M 117.132812 5.613281 C 117.902344 5.804688 117.902344 5.804688 117.902344 5.804688 Z M 117.132812 5.613281 "/>
<path style=" stroke:none;fill-rule:nonzero;fill:rgb(23.529412%,54.901961%,41.960784%);fill-opacity:1;" d="M 170.777344 7.742188 C 170.96875 7.835938 170.96875 7.835938 171.164062 7.933594 C 170.972656 8.03125 170.972656 8.03125 170.777344 8.128906 C 170.777344 8 170.777344 7.875 170.777344 7.742188 Z M 170.777344 7.742188 "/>
<path style=" stroke:none;fill-rule:nonzero;fill:rgb(19.215686%,60.784314%,43.137255%);fill-opacity:1;" d="M 120.21875 5.613281 C 120.796875 5.804688 120.796875 5.804688 120.796875 5.804688 Z M 120.21875 5.613281 "/>
</g>
</svg>
